<?xml version="1.0" encoding="utf-8"?>
<!-- Generator: Adobe Illustrator 16.0.0, SVG Export Plug-In . SVG Version: 6.00 Build 0)  -->
<!DOCTYPE svg PUBLIC "-//W3C//DTD SVG 1.1//EN" "http://www.w3.org/Graphics/SVG/1.1/DTD/svg11.dtd">
<svg version="1.1" id="Layer_1" xmlns="http://www.w3.org/2000/svg" xmlns:xlink="http://www.w3.org/1999/xlink" x="0px" y="0px"
	 width="100px" height="100px" viewBox="0 0 100 100" enable-background="new 0 0 100 100" xml:space="preserve">
<g>
	<g>
		<path fill="#29BDC1" d="M46.704,64.09c-4.338-10.699-11.478-20.456-21.846-29.818l-2.724-2.467l3.163,1.864
			c2.291,1.341,4.677,3.356,6.796,5.136c1.104,0.929,2.148,1.807,3.104,2.534c7.686,8.226,13.169,16.565,16.79,25.531l0,0
			c3.02,7.446,4.504,14.771,5.044,21.995c1.312-11.722-1.211-30.11-7.229-39.152C40.223,34.983,7.808,19.667,7.808,19.667
			c6.403,12.783,3.377,27.724,7.62,40.961c10.807,21.59,26.421,23.031,36.309,28.05c-0.303-8.101-1.68-16.306-5.032-24.581
			C46.704,64.09,46.704,64.09,46.704,64.09z"/>
	</g>
	<g>
		<path fill="#29BDC1" d="M64.853,42.082c-4.036,6.071-5.562,18.891-4.291,26.04c3.198-11.086,6.86-22.203,16.172-27.995
			c-4.973,7.478-7.893,16.585-10.445,25.139c6.09-2.43,14.196-4.664,20.053-16.358c2.653-8.279,0.755-17.618,4.761-25.603
			C91.102,23.304,70.841,32.874,64.853,42.082z"/>
	</g>
	<path fill="#003837" d="M54.122,41.989c-0.445-2.706-0.284-5.504,0.208-8.204c0.486-2.709,1.317-5.353,2.386-7.888
		c1.074-2.534,2.392-4.958,3.952-7.205c1.556-2.258,3.342-4.374,5.437-6.127c-1.406,2.344-2.742,4.649-3.977,7.006
		c-1.229,2.356-2.374,4.742-3.406,7.181c-1.033,2.43-1.947,4.905-2.742,7.433C55.202,36.716,54.579,39.292,54.122,41.989z"/>
	<path fill="#003837" d="M63.867,86.067c0.581-3.422,2.231-6.605,4.166-9.473c1.946-2.893,4.273-5.489,6.76-7.893
		c1.27-1.182,2.564-2.324,3.91-3.407c1.371-1.056,2.755-2.101,4.215-3.03c2.901-1.875,5.981-3.542,9.287-4.533
		c-2.92,1.819-5.645,3.822-8.297,5.917c-1.306,1.065-2.629,2.115-3.881,3.237c-1.271,1.095-2.522,2.22-3.728,3.395
		c-1.24,1.146-2.415,2.336-3.565,3.564c-1.177,1.204-2.263,2.48-3.349,3.759C67.268,80.206,65.31,82.941,63.867,86.067z"/>
	<path fill="#003837" d="M5.019,66.33c2.742,2.107,5.3,4.398,7.846,6.659c1.288,1.118,2.54,2.271,3.834,3.368
		c1.276,1.119,2.558,2.226,3.869,3.285c1.294,1.083,2.629,2.121,3.977,3.115c1.341,1.026,2.736,1.962,4.143,2.882
		c2.836,1.813,5.815,3.392,9.026,4.667c-3.437-0.391-6.777-1.591-9.87-3.189c-1.566-0.781-3.039-1.715-4.492-2.671
		c-1.436-0.982-2.813-2.038-4.161-3.124c-1.329-1.11-2.623-2.256-3.881-3.44c-1.229-1.203-2.469-2.411-3.626-3.683
		C9.333,71.689,7.12,69.069,5.019,66.33z"/>
</g>
</svg>
